<?xml version="1.0" encoding="utf-8"?>
<!-- Generator: Adobe Illustrator 28.0.0, SVG Export Plug-In . SVG Version: 6.00 Build 0)  -->
<svg version="1.1" id="Layer_1" xmlns="http://www.w3.org/2000/svg" xmlns:xlink="http://www.w3.org/1999/xlink" x="0px" y="0px"
	 viewBox="0 0 479.8 612.9" style="enable-background:new 0 0 479.8 612.9;" xml:space="preserve">
<style type="text/css">
	.st0{fill:#5A4146;}
	.st1{fill:#E6AF78;}
	.st2{fill:#D29B6E;}
	.st3{fill:#C3E678;}
	.st4{fill:#F0C087;}
	.st5{fill:#707487;}
	.st6{fill:#A5D76E;}
</style>
<path class="st0" d="M426.6,370.1c0.1,10.2-5.7,19.5-14.8,23.6c-44.4,20.4-105.1,33-172.2,33s-127.8-12.6-172.2-33
	c-9-4.2-14.8-13.5-14.8-23.6c1.8-191.3,36.7-357.6,187-357.6S424.8,178.8,426.6,370.1z"/>
<path class="st1" d="M442.1,483.3l-119.2-49.7c-10-4.1-16.4-13.9-16.4-24.7v-32.3H172.9v32.3c0,10.8-6.5,20.5-16.4,24.7L37.2,483.3
	c-14.9,6.2-24.7,20.8-24.7,37v53.4c0,14.8,12,26.7,26.7,26.7h400.8c14.8,0,26.7-12,26.7-26.7v-53.4
	C466.8,504.1,457.1,489.5,442.1,483.3z"/>
<path class="st2" d="M306.5,376.6H172.9v32.3c0,10.8-6.5,20.5-16.4,24.7l-18.6,7.8C280.3,477.7,306.5,376.6,306.5,376.6z"/>
<path class="st3" d="M442.1,483.3L354,446.5c-57.6,72.4-114.4,87.1-114.4,87.1s-56.8-14.7-114.4-87.1l-88.1,36.7
	c-14.9,6.2-24.7,20.8-24.7,37v53.4c0,14.8,12,26.7,26.7,26.7h400.8c14.8,0,26.7-12,26.7-26.7v-53.4
	C466.8,504.1,457.1,489.5,442.1,483.3z"/>
<path class="st4" d="M373.3,199.6l-10.8,118.8c-1.6,17.6-11.8,33.3-27.3,41.9l-69.6,38.7c-16.1,9-35.8,9-51.9,0l-69.6-38.7
	c-15.5-8.6-25.7-24.3-27.3-41.9l-10.8-118.8c0,0,147-13.4,213.8-53.4C319.8,146.1,333.2,186.2,373.3,199.6z"/>
<g>
	<path class="st5" d="M393.3,226.3h-22.5l-7.3,80.2h29.8c7.4,0,13.4-6,13.4-13.4v-53.4C406.7,232.3,400.7,226.3,393.3,226.3z"/>
	<path class="st5" d="M108.5,226.3H86c-7.4,0-13.4,6-13.4,13.4v53.4c0,7.4,6,13.4,13.4,13.4h29.8L108.5,226.3z"/>
</g>
<g>
	<path class="st6" d="M77.7,534.9L24,492.3c-7.2,7.3-11.5,17.3-11.5,28v53.4c0,14.8,12,26.7,26.7,26.7h53.4v-34.2
		C92.7,554.1,87.2,542.5,77.7,534.9z"/>
	<path class="st6" d="M466.8,573.7v-53.4c0-10.6-4.2-20.5-11.3-27.8l-53.8,42.5c-9.5,7.6-15,19.1-15,31.3v34.2h53.4
		C454.8,600.4,466.8,588.5,466.8,573.7z"/>
</g>
<path class="st1" d="M224.5,403.4c3.4,1,6.9,1.7,10.4,2h0L214,370.6c-9.5-15.8-15.2-33.5-16.7-51.9l-9.4-78.5
	c-0.8-7,3.8-13.3,10.7-14.7c35.7-7,75.6-17,107.8-30.9c10.8,15.7,28.7,34.1,56.2,43.3l2.8,0.9l4.2,0.6l3.6-39.8
	c-40.1-13.4-53.4-53.4-53.4-53.4c-66.8,40.1-213.8,53.4-213.8,53.4l2.4,26.6l8.4,92.2c0.4,4.4,1.3,8.7,2.8,12.8
	c2.5,7.1,6.5,13.6,11.7,19c3.7,3.9,8,7.4,12.8,10.1l69.6,38.7c3.1,1.7,6.4,3,9.7,4.1C223.8,403.1,224.1,403.3,224.5,403.4z"/>
<path class="st6" d="M354,446.5c-57.6,72.4-114.4,87.1-114.4,87.1s-56.8-14.7-114.4-87.1l-31.2,13
	c69.9,89.2,136.5,109.4,139.5,110.2l6,1.7l6-1.7c3-0.9,69.6-21,139.5-110.2L354,446.5z"/>
<path d="M447,471.7l-115-47.9c32.9-6,63.3-15.2,88.4-26.9c11.6-5.4,19-17.1,18.9-29.7C438.1,209.5,416.1,0,239.7,0
	S41.2,209.5,40.1,367.1c-0.1,12.7,7.3,24.3,18.9,29.7c25.1,11.7,55.5,21,88.4,26.9l-115,47.9C12.7,479.9,0,498.9,0,520.3v53.4
	c0,21.6,17.6,39.2,39.2,39.2h400.8c21.6,0,39.2-17.6,39.2-39.2v-53.4C479.3,498.9,466.6,479.9,447,471.7z M374.1,566.2v21.7H105.2
	v-21.7c0-16.1-7.2-31-19.7-41.1l-39.8-31.9l77.2-32.2c0,0.1,0.1,0.1,0.1,0.2c55.4,69.3,111.3,83.9,113.6,84.5c1,0.2,2,0.4,3,0.4
	s2-0.1,3-0.4c2.3-0.6,58.2-15.2,113.6-84.5c0-0.1,0.1-0.1,0.1-0.2l77.2,32.2l-39.8,31.9C381.3,535.2,374.1,550.2,374.1,566.2z
	 M377.3,293.9l5-55.1h4.3c7.8,0,14.2,6.4,14.2,14.2v26.7c0,7.8-6.4,14.2-14.2,14.2L377.3,293.9L377.3,293.9z M351.4,302.4
	c-10.2,9-42.7,31.6-111.7,31.6c-6.9,0-12.5,5.6-12.5,12.5c0,6.9,5.6,12.5,12.5,12.5c48,0,80.8-10,102.1-20.6
	c-3.4,4.4-7.6,8.1-12.6,10.9L259.5,388c-12.4,6.9-27.3,6.9-39.7,0l-69.6-38.7c-11.8-6.6-19.7-18.6-20.9-32.1l-9.7-106.5
	c35-4,134.4-17.3,194.4-47.2c7.2,13.2,21.4,32.9,45.9,44.2L351.4,302.4z M185.4,408.9v-11.4l22.2,12.4c10,5.6,21,8.4,32,8.4
	c11,0,22-2.8,32-8.4l22.2-12.4v11.4c0,15.9,9.5,30.1,24.2,36.2l14.2,5.9c-41.2,49.2-81.6,65.6-92.7,69.5
	c-11.2-3.8-51.1-19.9-92.6-69.5l14.2-5.9C175.9,439,185.4,424.8,185.4,408.9z M409.8,374.1c-25.3,11.8-56.7,21-90.8,26.5v-17
	l22.3-12.4c19.1-10.6,31.7-29.9,33.7-51.7l0-0.5h11.6c9.9,0,19-3.7,25.9-9.8c0.9,18.4,1.5,37.7,1.6,58.1
	C414.2,370.2,412.5,372.9,409.8,374.1z M239.7,25.1c64.7,0,109.9,32.3,138.2,98.7c11,25.9,19.5,57,25.4,93.8
	c-5.1-2.4-10.7-3.7-16.7-3.7h-2.1l1.2-13.1c0.5-5.8-3-11.2-8.5-13c-33.4-11.1-45.4-45.2-45.5-45.5c-1.2-3.6-4-6.5-7.5-7.8
	c-3.6-1.3-7.5-0.9-10.8,1c-63.6,38.1-207,51.6-208.5,51.7c-6.9,0.6-12,6.7-11.3,13.6l1.2,13.1h-2.1c-6,0-11.6,1.3-16.7,3.7
	c6-36.8,14.4-67.9,25.4-93.8C129.7,57.3,175,25.1,239.7,25.1z M102.1,293.9h-9.4c-7.8,0-14.2-6.4-14.2-14.2V253
	c0-7.8,6.4-14.2,14.2-14.2H97L102.1,293.9z M65.1,367.3c0.2-20.4,0.7-39.7,1.6-58.1c6.9,6.1,16,9.8,25.9,9.8h11.6l0,0.5
	c2,21.8,14.6,41.1,33.7,51.7l22.3,12.4v17c-34.1-5.5-65.4-14.6-90.8-26.5C66.9,372.9,65.1,370.2,65.1,367.3z M25.1,573.7v-53.4
	c0-3.5,0.6-6.8,1.8-9.9l42.9,34.4c6.6,5.3,10.3,13.1,10.3,21.5v21.7H39.2C31.4,587.9,25.1,581.5,25.1,573.7z M454.3,573.7
	c0,7.8-6.4,14.2-14.2,14.2h-40.9v-21.7c0-8.4,3.8-16.3,10.3-21.5l42.9-34.4c1.2,3.1,1.8,6.4,1.8,9.9V573.7z"/>
</svg>
