<?xml version="1.0" encoding="utf-8"?>
<!-- Generator: Adobe Illustrator 28.0.0, SVG Export Plug-In . SVG Version: 6.00 Build 0)  -->
<svg version="1.1" id="Capa_1" xmlns="http://www.w3.org/2000/svg" xmlns:xlink="http://www.w3.org/1999/xlink" x="0px" y="0px"
	 viewBox="0 0 600 160" style="enable-background:new 0 0 600 160;" xml:space="preserve">
<style type="text/css">
	.st0{fill:#A5D76E;}
	.st1{fill:#C3E678;}
	.st2{fill:#5A4146;}
	.st3{fill:#E6AF78;}
	.st4{fill:#D29B6E;}
	.st5{fill:#F0C087;}
	.st6{fill:#707487;}
</style>
<g>
	<path class="st0" d="M258.8,100.7c-7.31-4.01-13.06-9.72-17.26-17.13c-4.2-7.4-6.3-15.93-6.3-25.59c0-9.75,2.1-18.3,6.3-25.65
		c4.2-7.35,9.95-13.04,17.26-17.06c7.31-4.01,15.52-6.02,24.64-6.02c9.11,0,17.33,2.01,24.64,6.02c7.31,4.02,13.07,9.7,17.26,17.06
		c4.2,7.36,6.3,15.91,6.3,25.65c0,9.66-2.1,18.19-6.3,25.59c-4.2,7.4-9.95,13.11-17.26,17.13c-7.31,4.02-15.52,6.02-24.64,6.02
		C274.32,106.73,266.11,104.72,258.8,100.7z M303,93.33c5.73-3.16,10.24-7.74,13.54-13.74c3.29-6,4.94-13.2,4.94-21.59
		c0-8.48-1.69-15.75-5.08-21.8c-3.38-6.05-7.99-10.6-13.81-13.67c-5.82-3.07-12.3-4.6-19.43-4.6c-7.22,0-13.7,1.58-19.43,4.74
		c-5.73,3.16-10.22,7.76-13.47,13.81c-3.25,6.05-4.87,13.22-4.87,21.53c0,8.39,1.65,15.59,4.94,21.59c3.29,6,7.81,10.58,13.54,13.74
		c5.73,3.16,12.25,4.74,19.56,4.74C290.75,98.07,297.27,96.49,303,93.33z"/>
	<path class="st0" d="M352.55,105.31c-0.86-0.95-1.29-2.28-1.29-3.99V8.04c0-1.71,0.43-3.05,1.29-3.99
		c0.86-0.95,2.05-1.42,3.59-1.42c1.53,0,2.75,0.47,3.66,1.42c0.9,0.95,1.35,2.28,1.35,3.99v93.28c0,1.62-0.43,2.93-1.29,3.93
		c-0.86,0.99-2.1,1.49-3.72,1.49C354.6,106.73,353.41,106.26,352.55,105.31z"/>
	<path class="st0" d="M385.18,21.37c-1.4-1.31-2.1-2.91-2.1-4.81c0-1.89,0.7-3.52,2.1-4.87c1.4-1.35,3.09-2.03,5.08-2.03
		c1.98,0,3.72,0.7,5.21,2.1c1.49,1.4,2.23,3,2.23,4.81c0,1.81-0.74,3.38-2.23,4.74c-1.49,1.35-3.23,2.03-5.21,2.03
		C388.27,23.33,386.58,22.68,385.18,21.37z M386.67,105.31c-0.86-0.95-1.29-2.28-1.29-3.99V43.1c0-1.71,0.43-3.05,1.29-3.99
		c0.86-0.95,2.05-1.42,3.59-1.42c1.62,0,2.86,0.47,3.72,1.42c0.86,0.95,1.29,2.28,1.29,3.99v58.21c0,1.72-0.43,3.05-1.29,3.99
		c-0.86,0.95-2.1,1.42-3.72,1.42C388.72,106.73,387.52,106.26,386.67,105.31z"/>
	<path class="st0" d="M437.84,102.8c-3.02-2.62-5.53-6.68-7.51-12.18l-16.79-46.44c-0.18-0.72-0.27-1.22-0.27-1.49
		c0-0.99,0.32-1.92,0.95-2.78c0.63-0.86,1.44-1.47,2.44-1.83c0.45-0.18,1.13-0.27,2.03-0.27c1.08,0,2.01,0.27,2.78,0.81
		c0.77,0.54,1.33,1.31,1.69,2.3l17.06,46.98c1.44,3.88,2.8,6.59,4.06,8.12c1.26,1.54,2.8,2.3,4.6,2.3c1.8,0,3.36-0.74,4.67-2.23
		c1.31-1.49,2.64-4.13,3.99-7.92l17.06-47.25c0.81-2.08,2.3-3.11,4.47-3.11c1.62,0,2.95,0.47,3.99,1.42
		c1.04,0.95,1.56,2.1,1.56,3.45c0,0.27-0.09,0.77-0.27,1.49l-17.06,46.71c-1.99,5.51-4.47,9.52-7.45,12.05
		c-2.98,2.53-6.63,3.79-10.97,3.79C444.54,106.73,440.86,105.42,437.84,102.8z"/>
	<path class="st0" d="M502.15,21.37c-1.4-1.31-2.1-2.91-2.1-4.81c0-1.89,0.7-3.52,2.1-4.87c1.4-1.35,3.09-2.03,5.08-2.03
		c1.98,0,3.72,0.7,5.21,2.1c1.49,1.4,2.23,3,2.23,4.81c0,1.81-0.74,3.38-2.23,4.74c-1.49,1.35-3.23,2.03-5.21,2.03
		C505.24,23.33,503.54,22.68,502.15,21.37z M503.64,105.31c-0.86-0.95-1.29-2.28-1.29-3.99V43.1c0-1.71,0.43-3.05,1.29-3.99
		c0.86-0.95,2.05-1.42,3.59-1.42c1.62,0,2.86,0.47,3.72,1.42c0.86,0.95,1.29,2.28,1.29,3.99v58.21c0,1.72-0.43,3.05-1.29,3.99
		c-0.86,0.95-2.1,1.42-3.72,1.42C505.69,106.73,504.49,106.26,503.64,105.31z"/>
	<path class="st0" d="M537.75,100.91c-5.01-3.88-7.51-9.25-7.51-16.11c0-6.77,2.64-12.14,7.92-16.11
		c5.28-3.97,12.48-5.96,21.59-5.96c5.32,0,10.04,0.72,14.15,2.17c4.11,1.44,7.29,3.38,9.54,5.82v-8.66c0-5.15-1.69-9.07-5.08-11.78
		c-3.38-2.71-8.33-4.06-14.82-4.06c-8.39,0-15.66,1.99-21.8,5.96c-1.54,0.9-2.8,1.35-3.79,1.35c-0.9,0-1.81-0.36-2.71-1.08
		c-0.99-0.81-1.49-1.85-1.49-3.11c0-1.35,0.59-2.48,1.76-3.38c3.25-2.53,7.38-4.54,12.39-6.03c5.01-1.49,10.13-2.23,15.37-2.23
		c9.57,0,16.99,2.17,22.27,6.5c5.28,4.33,7.92,10.42,7.92,18.28v38.99c0,3.52-1.62,5.28-4.87,5.28c-1.45,0-2.62-0.47-3.52-1.42
		c-0.9-0.95-1.35-2.19-1.35-3.72v-4.87c-5.6,6.68-13.99,10.02-25.18,10.02C549.69,106.73,542.76,104.79,537.75,100.91z
		 M576.94,94.48c4.42-2.66,6.63-6.11,6.63-10.36c0-4.24-2.05-7.51-6.16-9.81c-4.11-2.3-9.91-3.45-17.4-3.45
		c-6.32,0-11.19,1.2-14.62,3.59c-3.43,2.39-5.14,5.84-5.14,10.36c0,4.42,1.67,7.81,5.01,10.15c3.34,2.35,8.17,3.52,14.49,3.52
		C566.79,98.47,572.52,97.14,576.94,94.48z"/>
</g>
<g>
	<path class="st1" d="M244.95,151.98c-0.32-0.34-0.48-0.81-0.48-1.42V131.8c0-4.35,1.22-7.75,3.67-10.2
		c2.45-2.45,5.85-3.67,10.2-3.67c4.32,0,7.71,1.23,10.18,3.7c2.46,2.46,3.7,5.86,3.7,10.18v18.77c0,0.61-0.16,1.08-0.48,1.42
		c-0.32,0.34-0.77,0.5-1.34,0.5c-0.54,0-0.98-0.17-1.32-0.5s-0.5-0.81-0.5-1.42v-10.8h-20.5v10.8c0,0.61-0.16,1.08-0.48,1.42
		c-0.32,0.34-0.77,0.5-1.34,0.5C245.7,152.49,245.27,152.32,244.95,151.98z M268.56,136.79v-5.14c0-3.42-0.88-6.06-2.64-7.9
		c-1.76-1.84-4.29-2.76-7.58-2.76c-3.33,0-5.87,0.91-7.63,2.74c-1.76,1.82-2.64,4.47-2.64,7.92v5.14H268.56z"/>
	<path class="st1" d="M288.87,151.53c-1.98-0.85-3.55-2.02-4.7-3.53c-0.22-0.32-0.34-0.64-0.34-0.96c0-0.32,0.09-0.6,0.26-0.84
		s0.41-0.42,0.7-0.55c0.26-0.1,0.46-0.14,0.62-0.14c0.29,0,0.54,0.07,0.74,0.22c0.21,0.14,0.46,0.38,0.74,0.7
		c2.08,2.21,4.85,3.31,8.3,3.31c1.66,0,3.01-0.29,4.03-0.86c1.02-0.58,1.54-1.38,1.54-2.4c0-0.74-0.2-1.33-0.6-1.8
		c-0.4-0.46-1.07-0.9-2.02-1.3c-0.94-0.4-2.49-0.97-4.63-1.7c-2.08-0.7-3.71-1.38-4.9-2.02c-1.18-0.64-2.06-1.37-2.64-2.18
		c-0.58-0.82-0.86-1.82-0.86-3c0-1.86,0.81-3.34,2.42-4.46c1.62-1.12,3.77-1.68,6.46-1.68c1.98,0,3.82,0.34,5.52,1.03
		c1.7,0.69,2.98,1.61,3.84,2.76c0.26,0.35,0.38,0.69,0.38,1.01c0,0.48-0.26,0.86-0.77,1.15c-0.32,0.19-0.64,0.29-0.96,0.29
		c-0.54,0-1.06-0.24-1.54-0.72c-0.83-0.83-1.75-1.45-2.74-1.85c-0.99-0.4-2.26-0.6-3.79-0.6c-1.7,0-2.99,0.27-3.89,0.82
		c-0.9,0.54-1.34,1.31-1.34,2.3c0,0.74,0.18,1.32,0.55,1.75c0.37,0.43,0.96,0.82,1.78,1.15c0.82,0.34,2.25,0.84,4.3,1.51
		c2.3,0.77,4.09,1.5,5.35,2.18c1.26,0.69,2.18,1.45,2.74,2.28c0.56,0.83,0.84,1.86,0.84,3.07c0,1.92-0.84,3.46-2.52,4.61
		c-1.68,1.15-3.86,1.73-6.55,1.73C292.96,152.8,290.85,152.38,288.87,151.53z"/>
	<path class="st1" d="M324.58,151.53c-1.98-0.85-3.55-2.02-4.7-3.53c-0.22-0.32-0.34-0.64-0.34-0.96c0-0.32,0.09-0.6,0.26-0.84
		s0.41-0.42,0.7-0.55c0.26-0.1,0.46-0.14,0.62-0.14c0.29,0,0.54,0.07,0.74,0.22c0.21,0.14,0.46,0.38,0.74,0.7
		c2.08,2.21,4.85,3.31,8.3,3.31c1.66,0,3.01-0.29,4.03-0.86c1.02-0.58,1.54-1.38,1.54-2.4c0-0.74-0.2-1.33-0.6-1.8
		c-0.4-0.46-1.07-0.9-2.02-1.3c-0.94-0.4-2.49-0.97-4.63-1.7c-2.08-0.7-3.71-1.38-4.9-2.02c-1.18-0.64-2.06-1.37-2.64-2.18
		c-0.58-0.82-0.86-1.82-0.86-3c0-1.86,0.81-3.34,2.42-4.46c1.62-1.12,3.77-1.68,6.46-1.68c1.98,0,3.82,0.34,5.52,1.03
		c1.7,0.69,2.98,1.61,3.84,2.76c0.26,0.35,0.38,0.69,0.38,1.01c0,0.48-0.26,0.86-0.77,1.15c-0.32,0.19-0.64,0.29-0.96,0.29
		c-0.54,0-1.06-0.24-1.54-0.72c-0.83-0.83-1.75-1.45-2.74-1.85c-0.99-0.4-2.26-0.6-3.79-0.6c-1.7,0-2.99,0.27-3.89,0.82
		c-0.9,0.54-1.34,1.31-1.34,2.3c0,0.74,0.18,1.32,0.55,1.75c0.37,0.43,0.96,0.82,1.78,1.15c0.82,0.34,2.25,0.84,4.3,1.51
		c2.3,0.77,4.09,1.5,5.35,2.18c1.26,0.69,2.18,1.45,2.74,2.28c0.56,0.83,0.84,1.86,0.84,3.07c0,1.92-0.84,3.46-2.52,4.61
		c-1.68,1.15-3.86,1.73-6.55,1.73C328.67,152.8,326.56,152.38,324.58,151.53z"/>
	<path class="st1" d="M363.63,122.54c-0.5-0.46-0.74-1.03-0.74-1.7s0.25-1.25,0.74-1.73c0.5-0.48,1.1-0.72,1.8-0.72
		c0.7,0,1.32,0.25,1.85,0.74c0.53,0.5,0.79,1.06,0.79,1.7c0,0.64-0.26,1.2-0.79,1.68c-0.53,0.48-1.14,0.72-1.85,0.72
		C364.72,123.23,364.12,123,363.63,122.54z M364.15,152.3c-0.3-0.34-0.46-0.81-0.46-1.42v-20.64c0-0.61,0.15-1.08,0.46-1.42
		s0.73-0.5,1.27-0.5c0.58,0,1.02,0.17,1.32,0.5c0.3,0.34,0.46,0.81,0.46,1.42v20.64c0,0.61-0.15,1.08-0.46,1.42
		c-0.3,0.34-0.74,0.5-1.32,0.5C364.88,152.8,364.46,152.63,364.15,152.3z"/>
	<path class="st1" d="M396,151.53c-1.98-0.85-3.55-2.02-4.7-3.53c-0.22-0.32-0.34-0.64-0.34-0.96c0-0.32,0.09-0.6,0.26-0.84
		s0.41-0.42,0.7-0.55c0.26-0.1,0.46-0.14,0.62-0.14c0.29,0,0.54,0.07,0.74,0.22c0.21,0.14,0.46,0.38,0.74,0.7
		c2.08,2.21,4.85,3.31,8.3,3.31c1.66,0,3.01-0.29,4.03-0.86c1.02-0.58,1.54-1.38,1.54-2.4c0-0.74-0.2-1.33-0.6-1.8
		c-0.4-0.46-1.07-0.9-2.02-1.3c-0.94-0.4-2.49-0.97-4.63-1.7c-2.08-0.7-3.71-1.38-4.9-2.02c-1.18-0.64-2.06-1.37-2.64-2.18
		c-0.58-0.82-0.86-1.82-0.86-3c0-1.86,0.81-3.34,2.42-4.46c1.62-1.12,3.77-1.68,6.46-1.68c1.98,0,3.82,0.34,5.52,1.03
		c1.7,0.69,2.98,1.61,3.84,2.76c0.26,0.35,0.38,0.69,0.38,1.01c0,0.48-0.26,0.86-0.77,1.15c-0.32,0.19-0.64,0.29-0.96,0.29
		c-0.54,0-1.06-0.24-1.54-0.72c-0.83-0.83-1.75-1.45-2.74-1.85c-0.99-0.4-2.26-0.6-3.79-0.6c-1.7,0-2.99,0.27-3.89,0.82
		c-0.9,0.54-1.34,1.31-1.34,2.3c0,0.74,0.18,1.32,0.55,1.75c0.37,0.43,0.96,0.82,1.78,1.15c0.82,0.34,2.25,0.84,4.3,1.51
		c2.3,0.77,4.09,1.5,5.35,2.18c1.26,0.69,2.18,1.45,2.74,2.28c0.56,0.83,0.84,1.86,0.84,3.07c0,1.92-0.84,3.46-2.52,4.61
		c-1.68,1.15-3.86,1.73-6.55,1.73C400.1,152.8,397.98,152.38,396,151.53z"/>
	<path class="st1" d="M445.99,148.58c0,0.32-0.14,0.7-0.43,1.15c-0.67,0.93-1.6,1.67-2.78,2.23c-1.18,0.56-2.4,0.84-3.65,0.84
		c-2.11,0-3.78-0.62-4.99-1.87c-1.22-1.25-1.82-2.96-1.82-5.14v-14.06h-2.59c-1.28,0-1.92-0.5-1.92-1.49c0-0.45,0.17-0.8,0.5-1.06
		s0.81-0.38,1.42-0.38h2.59v-8.21c0-0.61,0.15-1.08,0.46-1.42c0.3-0.34,0.74-0.5,1.32-0.5c0.54,0,0.97,0.17,1.27,0.5
		c0.3,0.34,0.46,0.81,0.46,1.42v8.21h6.53c0.58,0,1.03,0.12,1.37,0.36s0.5,0.6,0.5,1.08c0,0.99-0.62,1.49-1.87,1.49h-6.53v14.35
		c0,2.46,1.15,3.7,3.46,3.7c0.74,0,1.41-0.14,2.02-0.43c0.61-0.29,1.22-0.75,1.82-1.39c0.48-0.51,0.94-0.77,1.39-0.77
		c0.29,0,0.61,0.13,0.96,0.38C445.82,147.86,445.99,148.19,445.99,148.58z"/>
	<path class="st1" d="M464.06,150.74c-1.78-1.38-2.66-3.28-2.66-5.71c0-2.4,0.94-4.3,2.81-5.71s4.42-2.11,7.66-2.11
		c1.89,0,3.56,0.26,5.02,0.77s2.58,1.2,3.38,2.06v-3.07c0-1.82-0.6-3.22-1.8-4.18s-2.95-1.44-5.26-1.44c-2.98,0-5.55,0.7-7.73,2.11
		c-0.54,0.32-0.99,0.48-1.34,0.48c-0.32,0-0.64-0.13-0.96-0.38c-0.35-0.29-0.53-0.66-0.53-1.1c0-0.48,0.21-0.88,0.62-1.2
		c1.15-0.9,2.62-1.61,4.39-2.14s3.59-0.79,5.45-0.79c3.39,0,6.02,0.77,7.9,2.3s2.81,3.7,2.81,6.48v13.82c0,1.25-0.58,1.87-1.73,1.87
		c-0.51,0-0.93-0.17-1.25-0.5c-0.32-0.34-0.48-0.78-0.48-1.32v-1.73c-1.98,2.37-4.96,3.55-8.93,3.55
		C468.29,152.8,465.84,152.11,464.06,150.74z M477.96,148.46c1.57-0.94,2.35-2.17,2.35-3.67c0-1.5-0.73-2.66-2.18-3.48
		c-1.46-0.82-3.51-1.22-6.17-1.22c-2.24,0-3.97,0.42-5.18,1.27c-1.22,0.85-1.82,2.07-1.82,3.67c0,1.57,0.59,2.77,1.78,3.6
		c1.18,0.83,2.9,1.25,5.14,1.25C474.36,149.87,476.39,149.4,477.96,148.46z"/>
	<path class="st1" d="M497.37,152.3c-0.3-0.34-0.46-0.81-0.46-1.42v-20.64c0-0.61,0.14-1.08,0.43-1.42s0.72-0.5,1.3-0.5
		c0.54,0,0.97,0.17,1.27,0.5c0.3,0.34,0.46,0.81,0.46,1.42v2.83c1.18-1.57,2.62-2.75,4.3-3.55s3.53-1.2,5.54-1.2
		c3.04,0,5.38,0.85,7.03,2.54c1.65,1.7,2.47,4.13,2.47,7.3v12.72c0,0.61-0.16,1.08-0.48,1.42c-0.32,0.34-0.75,0.5-1.3,0.5
		c-0.58,0-1.01-0.17-1.3-0.5s-0.43-0.81-0.43-1.42v-12.72c0-4.54-2.14-6.82-6.43-6.82c-2.82,0-5.08,0.83-6.79,2.5
		c-1.71,1.67-2.57,3.87-2.57,6.62v10.42c0,0.58-0.15,1.04-0.46,1.39c-0.3,0.35-0.74,0.53-1.32,0.53
		C498.1,152.8,497.68,152.63,497.37,152.3z"/>
	<path class="st1" d="M538.15,151.29c-1.95-1.01-3.46-2.44-4.51-4.3c-1.06-1.86-1.58-4.02-1.58-6.48c0-2.43,0.53-4.57,1.58-6.41
		s2.56-3.26,4.51-4.27c1.95-1.01,4.21-1.51,6.77-1.51c2.4,0,4.48,0.34,6.24,1.01s3.15,1.66,4.18,2.98c0.25,0.35,0.38,0.69,0.38,1.01
		c0,0.48-0.24,0.91-0.72,1.3c-0.22,0.19-0.51,0.29-0.86,0.29c-0.54,0-1.06-0.24-1.54-0.72c-1.7-1.89-4.26-2.83-7.68-2.83
		c-2.98,0-5.27,0.79-6.89,2.38s-2.42,3.85-2.42,6.79c0,2.91,0.82,5.18,2.45,6.82s3.92,2.45,6.86,2.45c1.63,0,3.14-0.25,4.51-0.74
		c1.38-0.5,2.51-1.21,3.41-2.14c0.54-0.54,1.06-0.82,1.54-0.82c0.29,0,0.61,0.13,0.96,0.38c0.45,0.38,0.67,0.8,0.67,1.25
		c0,0.42-0.18,0.77-0.53,1.06c-1.57,1.41-3.2,2.43-4.9,3.07c-1.7,0.64-3.58,0.96-5.66,0.96C542.36,152.8,540.1,152.3,538.15,151.29z
		"/>
	<path class="st1" d="M570.35,146.82c-2.27-2.14-3.41-5.18-3.41-9.12c0-3.78,1.15-6.74,3.46-8.9c2.3-2.16,5.46-3.24,9.46-3.24
		c2.46,0,4.66,0.39,6.58,1.18c1.92,0.79,3.42,1.89,4.49,3.31c1.07,1.42,1.61,3.05,1.61,4.87c0,1.34-0.38,2.38-1.13,3.12
		s-1.78,1.1-3.1,1.1h-17.76c0,2.46,0.83,4.39,2.5,5.78c1.66,1.39,3.98,2.09,6.96,2.09c1.82,0,3.39-0.2,4.7-0.6
		c1.31-0.4,2.54-1.05,3.7-1.94c0.61-0.51,1.1-0.77,1.49-0.77c0.29,0,0.56,0.13,0.82,0.38c0.45,0.38,0.67,0.78,0.67,1.2
		c0,0.32-0.19,0.67-0.58,1.06c-1.31,1.25-2.85,2.18-4.61,2.78s-3.82,0.91-6.19,0.91C575.84,150.04,572.63,148.97,570.35,146.82z
		 M587.25,136.31c0.58,0,1.01-0.12,1.3-0.36c0.29-0.24,0.43-0.68,0.43-1.32c0-1.15-0.38-2.19-1.15-3.12
		c-0.77-0.93-1.85-1.65-3.24-2.16c-1.39-0.51-2.97-0.77-4.73-0.77c-2.85,0-5.1,0.7-6.74,2.09c-1.65,1.39-2.47,3.27-2.47,5.64H587.25
		z"/>
</g>
<g>
	<path class="st2" d="M162.11,93.27c0.02,2.49-1.4,4.77-3.62,5.79c-10.88,5-25.77,8.08-42.21,8.08s-31.33-3.08-42.21-8.08
		c-2.22-1.02-3.64-3.3-3.62-5.79c0.44-46.9,8.99-87.64,45.82-87.64S161.67,46.37,162.11,93.27z"/>
	<path class="st3" d="M165.92,120.99l-29.22-12.17c-2.44-1.02-4.03-3.4-4.03-6.05v-7.91H99.93v7.91c0,2.64-1.59,5.03-4.03,6.05
		l-29.22,12.17c-3.66,1.52-6.05,5.1-6.05,9.07v13.1c0,3.62,2.93,6.55,6.55,6.55h98.24c3.62,0,6.55-2.93,6.55-6.55v-13.1
		C171.97,126.1,169.58,122.52,165.92,120.99z"/>
	<path class="st4" d="M132.67,94.86H99.93v7.91c0,2.64-1.59,5.03-4.03,6.05l-4.56,1.9C126.26,119.63,132.67,94.86,132.67,94.86z"/>
	<path class="st1" d="M165.92,120.99l-21.59-9c-14.12,17.73-28.03,21.34-28.03,21.34s-13.91-3.61-28.03-21.34l-21.59,9
		c-3.66,1.53-6.05,5.1-6.05,9.07v13.1c0,3.62,2.93,6.55,6.55,6.55h98.24c3.62,0,6.55-2.93,6.55-6.55v-13.1
		C171.97,126.1,169.58,122.52,165.92,120.99z"/>
	<path class="st5" d="M149.05,51.47l-2.65,29.12c-0.39,4.32-2.89,8.16-6.68,10.26l-17.05,9.47c-3.96,2.2-8.77,2.2-12.72,0
		l-17.05-9.47c-3.79-2.1-6.29-5.95-6.68-10.26l-2.65-29.12c0,0,36.02-3.27,52.39-13.1C135.95,38.37,139.22,48.2,149.05,51.47z"/>
	<g>
		<path class="st6" d="M153.96,58.02h-5.51l-1.79,19.65h7.29c1.81,0,3.27-1.47,3.27-3.27V61.3
			C157.23,59.49,155.77,58.02,153.96,58.02z"/>
		<path class="st6" d="M84.15,58.02h-5.51c-1.81,0-3.27,1.47-3.27,3.27v13.1c0,1.81,1.47,3.27,3.27,3.27h7.29L84.15,58.02z"/>
	</g>
	<g>
		<path class="st0" d="M76.59,133.66l-13.14-10.46c-1.76,1.8-2.82,4.24-2.82,6.86v13.1c0,3.62,2.93,6.55,6.55,6.55h13.1v-8.38
			C80.28,138.35,78.92,135.53,76.59,133.66z"/>
		<path class="st0" d="M171.97,143.16v-13.1c0-2.6-1.04-5.02-2.77-6.81l-13.19,10.41c-2.33,1.86-3.69,4.69-3.69,7.67v8.38h13.1
			C169.04,149.71,171.97,146.78,171.97,143.16z"/>
	</g>
	<path class="st3" d="M112.58,101.42c0.83,0.24,1.69,0.41,2.54,0.49h0l-5.12-8.53c-2.32-3.87-3.72-8.22-4.1-12.72l-2.3-19.23
		c-0.2-1.71,0.94-3.27,2.63-3.6c8.75-1.71,18.53-4.16,26.43-7.58c2.66,3.85,7.03,8.36,13.76,10.61l0.7,0.23l1.03,0.16l0.89-9.76
		c-9.82-3.27-13.1-13.1-13.1-13.1c-16.37,9.82-52.39,13.1-52.39,13.1l0.59,6.52l2.05,22.6c0.1,1.08,0.33,2.13,0.68,3.13
		c0.61,1.74,1.6,3.32,2.86,4.66c0.91,0.97,1.96,1.81,3.15,2.48l17.05,9.47c0.76,0.42,1.56,0.74,2.37,1
		C112.4,101.36,112.49,101.39,112.58,101.42z"/>
	<path class="st0" d="M144.33,112c-14.12,17.73-28.03,21.34-28.03,21.34s-13.91-3.61-28.03-21.34l-7.63,3.18
		c17.12,21.87,33.46,26.8,34.19,27.01l1.48,0.42l1.48-0.42c0.72-0.21,17.06-5.15,34.19-27.01L144.33,112z"/>
	<path d="M167.1,118.16l-28.18-11.74c8.07-1.46,15.51-3.73,21.66-6.6c2.84-1.32,4.65-4.19,4.63-7.29
		c-0.29-38.62-5.67-89.97-48.91-89.97S67.67,53.9,67.39,92.53c-0.02,3.1,1.79,5.96,4.63,7.29c6.16,2.88,13.6,5.14,21.66,6.6
		L65.5,118.16c-4.82,2.01-7.93,6.68-7.93,11.9v13.1c0,5.3,4.32,9.62,9.62,9.62h98.24c5.3,0,9.62-4.32,9.62-9.62v-13.1
		C175.04,124.84,171.92,120.17,167.1,118.16z M149.25,141.33v5.31h-65.9v-5.31c0-3.94-1.76-7.61-4.84-10.07l-9.76-7.81l18.93-7.89
		c0.01,0.01,0.02,0.03,0.03,0.04c13.59,16.99,27.27,20.56,27.85,20.71c0.24,0.06,0.49,0.09,0.74,0.09c0.25,0,0.5-0.03,0.74-0.09
		c0.58-0.14,14.26-3.72,27.85-20.71c0.01-0.01,0.02-0.03,0.03-0.04l18.93,7.89l-9.76,7.81
		C151.02,133.73,149.25,137.39,149.25,141.33z M150.03,74.6l1.23-13.51h1.07c1.92,0,3.48,1.56,3.48,3.48v6.55
		c0,1.92-1.56,3.48-3.48,3.48L150.03,74.6L150.03,74.6z M143.67,76.67c-2.51,2.22-10.46,7.75-27.37,7.75c-1.7,0-3.07,1.37-3.07,3.07
		c0,1.7,1.37,3.07,3.07,3.07c11.75,0,19.8-2.46,25.01-5.06c-0.82,1.08-1.87,1.99-3.09,2.67l-17.05,9.47c-3.05,1.69-6.69,1.69-9.74,0
		l-17.05-9.47c-2.9-1.61-4.82-4.55-5.12-7.86l-2.37-26.1c8.58-0.97,32.95-4.25,47.65-11.57c1.77,3.24,5.25,8.08,11.25,10.84
		L143.67,76.67z M103,102.77v-2.79l5.45,3.03c2.46,1.37,5.16,2.05,7.85,2.05c2.7,0,5.39-0.68,7.85-2.05l5.45-3.03v2.79
		c0,3.9,2.32,7.38,5.92,8.88l3.48,1.45c-10.11,12.06-19.99,16.09-22.71,17.02c-2.74-0.92-12.53-4.88-22.7-17.02l3.48-1.45
		C100.67,110.16,103,106.67,103,102.77z M157.99,94.25c-6.2,2.9-13.88,5.13-22.24,6.48v-4.16l5.46-3.04
		c4.68-2.6,7.76-7.34,8.25-12.67l0.01-0.13h2.85c2.43,0,4.66-0.91,6.35-2.41c0.23,4.5,0.36,9.25,0.4,14.24
		C159.08,93.28,158.65,93.94,157.99,94.25z M116.3,8.7c15.86,0,26.94,7.91,33.87,24.19c2.7,6.34,4.77,13.96,6.24,22.98
		c-1.24-0.59-2.63-0.91-4.09-0.91h-0.51l0.29-3.2c0.13-1.42-0.74-2.74-2.09-3.19c-8.18-2.73-11.13-11.08-11.16-11.16
		c-0.29-0.88-0.97-1.59-1.85-1.91c-0.87-0.32-1.85-0.23-2.64,0.25c-15.58,9.35-50.74,12.64-51.09,12.67
		c-1.69,0.15-2.93,1.65-2.78,3.34l0.29,3.2h-0.51c-1.46,0-2.85,0.33-4.09,0.91c1.47-9.02,3.54-16.64,6.24-22.98
		C89.36,16.61,100.44,8.7,116.3,8.7z M82.57,74.6h-2.29c-1.92,0-3.48-1.56-3.48-3.48v-6.55c0-1.92,1.56-3.48,3.48-3.48h1.07
		L82.57,74.6z M73.53,92.57c0.04-4.99,0.17-9.74,0.4-14.24c1.7,1.5,3.92,2.41,6.35,2.41h2.85l0.01,0.13
		c0.48,5.33,3.57,10.07,8.25,12.67l5.46,3.03v4.16c-8.36-1.35-16.04-3.58-22.24-6.48C73.95,93.94,73.52,93.28,73.53,92.57z
		 M63.7,143.16v-13.1c0-0.85,0.16-1.67,0.45-2.42l10.53,8.42c1.61,1.29,2.53,3.21,2.53,5.27v5.31H67.18
		C65.26,146.64,63.7,145.08,63.7,143.16z M168.9,143.16c0,1.92-1.56,3.48-3.48,3.48h-10.03v-5.31c0-2.06,0.92-3.99,2.53-5.27
		l10.53-8.42c0.29,0.76,0.45,1.58,0.45,2.42V143.16z"/>
</g>
</svg>
